#!OML:ASF E:\Steps\Project 1\Capture day 1\Session 2\Subject.ASF
:FULLY-SPECIFIED
:DEGREES
425
root 11.7141 16.1447 12.6772 29.9297 -170.11 359.94
lowerback -9.35903 -2.31658 -6.90514
upperback 0.880377 -2.31999 -1.86419
thorax 6.38863 -1.39817 1.56484
lowerneck 1.3353 0.396688 -4.01725
upperneck 8.89446 -0.355845 6.78325
head 2.65093 -0.302737 2.91957
rclavicle -7.15625e-015 -3.18055e-015
rhumerus -26.9402 -15.8386 -88.3705
rradius 24.6619
rwrist 3.95318
rhand -12.3069 -50.8597
rfingers 7.12502
rthumb 13.7612 -80.3846
lclavicle -7.15625e-015 -3.18055e-015
lhumerus -25.7228 -3.78531 81.7393
lradius 19.3533
lwrist -3.45495
lhand -23.5753 -11.9684
lfingers 7.12502
lthumb 2.88755 17.9918
rfemur -50.913 18.5029 4.53197
rtibia 28.2145
rfoot -15.9501 -7.63636
rtoes -48.3683
lfemur -47.9444 -14.225 -11.3078
ltibia 32.9505
lfoot -14.5157 9.50563
ltoes -38.2148
426
root 11.6779 16.1511 12.6852 29.9379 -170.241 360.008
lowerback -9.30893 -2.23496 -6.80676
upperback 0.882811 -2.22453 -1.90012
thorax 6.34913 -1.34653 1.48918
lowerneck 1.17915 0.363363 -4.10106
upperneck 8.92073 -0.393533 6.82074
head 2.69211 -0.317989 2.94956
rclavicle 1.59028e-015 -3.81667e-014
rhumerus -26.9417 -15.8847 -88.4776
rradius 24.8393
rwrist 3.24544
rhand -12.3229 -51.544
rfingers 7.12502
rthumb 13.7458 -81.07
lclavicle 1.59028e-015 -3.81667e-014
lhumerus -25.65 -4.12837 81.8829
lradius 19.6031
lwrist -3.32432
lhand -23.3528 -11.4862
lfingers 7.12502
lthumb 3.10235 18.471
rfemur -50.869 18.4092 4.47798
rtibia 27.9594
rfoot -16.3021 -7.3416
rtoes -47.9729
lfemur -47.8986 -14.0721 -11.4675
ltibia 32.8881
lfoot -14.5384 9.39778
ltoes -37.8307
427
root 11.6433 16.1576 12.6916 29.9584 -170.468 360.064
lowerback -9.35635 -2.26948 -6.99897
upperback 1.01384 -2.23726 -1.76949
thorax 6.53109 -1.36559 1.72592
lowerneck 0.829272 0.343859 -4.1454
upperneck 8.94125 -0.397514 6.82701
head 2.7645 -0.309826 2.96368
rclavicle 2.38542e-015 7.95139e-015
rhumerus -26.5112 -15.6653 -88.4767
rradius 24.8242
rwrist 2.82359
rhand -12.1179 -51.4927
rfingers 7.12502
rthumb 13.9434 -81.0051
lclavicle 2.38542e-015 7.95139e-015
lhumerus -25.4437 -4.03048 82.119
lradius 19.9408
lwrist -3.11638
lhand -23.1942 -11.5169
lfingers 7.12502
lthumb 3.25555 18.4379
rfemur -50.8354 18.1579 4.53085
rtibia 27.7532
rfoot -17.8096 -6.75166
rtoes -46.693
lfemur -47.8135 -13.9777 -11.6108
ltibia 32.78
lfoot -14.5866 9.45258
ltoes -37.4062
428
root 11.6064 16.1605 12.6976 30.0321 -170.634 360.151
lowerback -9.63239 -2.30481 -7.09983
upperback 0.992458 -2.25139 -1.68264
thorax 6.67493 -1.37977 1.86159
lowerneck 1.07673 0.392782 -4.1013
upperneck 8.89942 -0.343755 6.79569
head 2.70037 -0.290593 2.9424
rclavicle -1.43125e-014 4.77083e-014
rhumerus -26.5143 -15.7625 -88.348
rradius 24.7304
rwrist 2.83284
rhand -12.2653 -51.2891
rfingers 7.12502
rthumb 13.8013 -80.8113
lclavicle -1.43125e-014 4.77083e-014
lhumerus -25.4981 -4.31854 82.3878
lradius 20.1656
lwrist -2.73487
lhand -22.8717 -11.333
lfingers 7.12502
lthumb 3.56702 18.6169
rfemur -50.9518 18.209 4.42857
rtibia 27.8201
rfoot -16.9118 -6.76071
rtoes -46.9183
lfemur -47.8168 -13.9285 -11.6852
ltibia 32.648
lfoot -14.501 9.59352
ltoes -37.416
429
root 11.5704 16.163 12.7038 30.08 -170.758 360.246
lowerback -9.96683 -2.30311 -7.10893
upperback 1.10991 -2.20994 -1.62011
thorax 6.9911 -1.36923 1.92363
lowerneck 1.19055 0.421033 -4.08385
upperneck 8.86785 -0.309579 6.78139
head 2.66625 -0.27676 2.93316
rclavicle -5.80451e-014 -6.52014e-014
rhumerus -26.3138 -16.2305 -88.1933
rradius 24.6395
rwrist 3.18094
rhand -12.5157 -51.4506
rfingers 7.12502
rthumb 13.56 -80.989
lclavicle -5.80451e-014 -6.52014e-014
lhumerus -25.0876 -4.83149 82.6709
lradius 20.1328
lwrist -2.30716
lhand -22.5148 -10.6278
lfingers 7.12502
lthumb 3.91161 19.316
rfemur -50.9092 18.3067 4.34525
rtibia 27.5914
rfoot -17.3106 -6.90527
rtoes -45.8551
lfemur -47.7547 -13.7559 -11.805
ltibia 32.4175
lfoot -14.3558 9.49084
ltoes -37.2357
430
root 11.5387 16.1702 12.709 29.9889 -170.978 360.286
lowerback -9.95563 -2.25522 -7.28061
upperback 1.16164 -2.12384 -1.56658
thorax 7.04208 -1.33621 2.0893
lowerneck 1.22477 0.417322 -4.08711
upperneck 8.87046 -0.317418 6.78073
head 2.66133 -0.282032 2.93312
rclavicle 2.78299e-014 -3.81667e-014
rhumerus -26.2345 -16.5684 -87.9926
rradius 24.5503
rwrist 3.48763
rhand -12.5078 -51.4406
rfingers 7.12502
rthumb 13.5677 -80.9785
lclavicle 2.78299e-014 -3.81667e-014
lhumerus -24.8846 -5.41622 83.0248
lradius 20.1947
lwrist -1.85595
lhand -22.7427 -10.9339
lfingers 7.12502
lthumb 3.6916 19.0138
rfemur -50.7843 18.5233 4.2332
rtibia 27.3694
rfoot -17.508 -7.02229
rtoes -44.9361
lfemur -47.4699 -13.5169 -12.0631
ltibia 32.1586
lfoot -14.3056 9.33275
ltoes -37.2293
431
root 11.5041 16.1773 12.713 29.9301 -171.111 360.339
lowerback -9.74646 -2.26476 -7.27882
upperback 1.06889 -2.1629 -1.5374
thorax 6.82788 -1.34814 2.12286
lowerneck 1.11765 0.415417 -4.14967
upperneck 8.91257 -0.316482 6.7821
head 2.69576 -0.280848 2.94707
rclavicle -2.22639e-014 1.59028e-014
rhumerus -26.3949 -16.4719 -87.9094
rradius 24.6955
rwrist 3.47983
rhand -11.956 -51.9428
rfingers 7.12502
rthumb 14.0994 -81.4445
lclavicle -2.22639e-014 1.59028e-014
lhumerus -24.9513 -5.54374 83.2061
lradius 20.3428
lwrist -1.69323
lhand -22.7321 -11.5049
lfingers 7.12502
lthumb 3.70183 18.4427
rfemur -50.8412 18.863 3.97793
rtibia 27.3722
rfoot -17.238 -7.46044
rtoes -44.8678
lfemur -47.3916 -13.5405 -12.143
ltibia 32.1395
lfoot -14.405 9.40999
ltoes -37.1968
432
root 11.4719 16.1857 12.7146 29.8077 -171.156 360.433
lowerback -9.60473 -2.32598 -7.24698
upperback 1.08315 -2.26095 -1.45724
thorax 6.77379 -1.39341 2.17867
lowerneck 1.00321 0.43652 -4.28347
upperneck 8.92764 -0.279684 6.79543
head 2.72092 -0.262823 2.9789
rclavicle 3.97569e-015 4.6118e-014
rhumerus -26.2737 -16.2247 -87.8706
rradius 24.6568
rwrist 3.4381
rhand -11.6231 -52.4915
rfingers 7.12502
rthumb 14.4202 -81.9706
lclavicle 3.97569e-015 4.6118e-014
lhumerus -24.9588 -5.49997 83.309
lradius 20.6396
lwrist -1.70316
lhand -22.2826 -11.6167
lfingers 7.12502
lthumb 4.13593 18.3229
rfemur -50.5527 18.2708 4.48077
rtibia 27.2174
rfoot -17.0692 -6.89233
rtoes -44.0817
lfemur -47.1953 -13.5092 -12.2096
ltibia 32.0232
lfoot -14.3294 9.4307
ltoes -37.5163
433
root 11.4412 16.1922 12.7153 29.6863 -171.303 360.574
lowerback -9.63276 -2.26625 -7.19679
upperback 1.12669 -2.18042 -1.46112
thorax 6.82642 -1.35374 2.15758
lowerneck 1.01675 0.426875 -4.29953
upperneck 8.89813 -0.29199 6.81804
head 2.70965 -0.26883 2.98894
rclavicle -1.98785e-014 4.77083e-015
rhumerus -26.0172 -16.491 -87.7932
rradius 24.2
rwrist 3.84283
rhand -12.0571 -52.2131
rfingers 7.12502
rthumb 14.002 -81.7215
lclavicle -1.98785e-014 4.77083e-015
lhumerus -25.0131 -6.00035 83.441
lradius 21.0446
lwrist -1.57746
lhand -22.1385 -11.8558
lfingers 7.12502
lthumb 4.27504 18.0811
rfemur -50.3781 18.2137 4.72437
rtibia 27.1684
rfoot -17.1314 -6.7345
rtoes -42.5139
lfemur -46.8513 -13.2649 -12.3366
ltibia 31.665
lfoot -14.0562 9.44088
ltoes -38.4834
434
root 11.4091 16.1955 12.7218 29.7054 -171.557 360.738
lowerback -9.69913 -2.17524 -7.09414
upperback 1.08318 -2.06623 -1.50189
thorax 6.80085 -1.29222 2.0749
lowerneck 1.06275 0.404885 -4.1876
upperneck 8.87719 -0.326134 6.81455
head 2.69527 -0.284163 2.96523
rclavicle 0 4.77083e-014
rhumerus -25.9356 -16.5477 -87.8126
rradius 24.073
rwrist 4.02609
rhand -12.3038 -52.2652
rfingers 7.12502
rthumb 13.7642 -81.7899
lclavicle 0 4.77083e-014
lhumerus -25.1066 -6.36795 83.5669
lradius 21.3452
lwrist -1.39048
lhand -22.0954 -11.7641
lfingers 7.12502
lthumb 4.31667 18.1719
rfemur -50.4464 18.2062 4.88048
rtibia 27.2622
rfoot -17.3518 -6.72307
rtoes -41.598
lfemur -46.7619 -12.984 -12.4065
ltibia 31.4296
lfoot -13.9044 9.46364
ltoes -38.5051
435
root 11.3749 16.1972 12.7302 29.7974 -171.864 360.788
lowerback -9.79947 -2.16748 -7.15925
upperback 1.09831 -2.03927 -1.46263
thorax 6.87607 -1.28397 2.15331
lowerneck 0.884221 0.398886 -4.21171
upperneck 8.88696 -0.323302 6.8207
head 2.73168 -0.277784 2.97386
rclavicle 1.27222e-014 3.02153e-014
rhumerus -25.7194 -16.0247 -87.8715
rradius 24.0994
rwrist 4.01598
rhand -12.6761 -52.3244
rfingers 7.12502
rthumb 13.4054 -81.8731
lclavicle 1.27222e-014 3.02153e-014
lhumerus -25.0049 -6.34251 83.769
lradius 21.5897
lwrist -1.1771
lhand -22.2525 -11.6008
lfingers 7.12502
lthumb 4.16494 18.3383
rfemur -50.6082 17.9359 5.03837
rtibia 27.4045
rfoot -17.2907 -6.70497
rtoes -41.5834
lfemur -46.8318 -12.8156 -12.5687
ltibia 31.3826
lfoot -13.849 9.55695
ltoes -38.4891
436
root 11.3421 16.2006 12.7315 29.8011 -172.111 360.815
lowerback -9.93598 -2.15207 -7.28558
upperback 1.01922 -1.99844 -1.43811
thorax 6.87121 -1.26814 2.25398
lowerneck 1.24975 0.441819 -4.2319
upperneck 8.87965 -0.289896 6.80374
head 2.6595 -0.274842 2.96862
rclavicle -7.95139e-015 -7.95139e-015
rhumerus -25.8481 -15.5731 -87.8098
rradius 23.9577
rwrist 4.24484
rhand -13.2677 -52.4106
rfingers 7.12502
rthumb 12.8351 -81.996
lclavicle -7.95139e-015 -7.95139e-015
lhumerus -25.3068 -6.7511 83.9989
lradius 22.0817
lwrist -0.660733
lhand -22.5326 -11.851
lfingers 7.12502
lthumb 3.89449 18.0932
rfemur -50.5524 17.7274 5.24297
rtibia 27.3205
rfoot -16.8884 -6.76527
rtoes -41.3318
lfemur -46.7354 -12.685 -12.7685
ltibia 31.3164
lfoot -13.8123 9.555
ltoes -38.3318
437
root 11.3126 16.2053 12.7278 29.7218 -172.25 360.919
lowerback -9.98601 -2.1234 -7.2393
upperback 1.03469 -1.95932 -1.47946
thorax 6.90911 -1.24846 2.18884
lowerneck 1.32554 0.427417 -4.12569
upperneck 8.88862 -0.317519 6.78172
head 2.64917 -0.289197 2.93994
rclavicle 1.35174e-014 6.99722e-014
rhumerus -25.7484 -15.4519 -87.8772
rradius 23.8647
rwrist 4.54417
rhand -12.9856 -53.0392
rfingers 7.12502
rthumb 13.1071 -82.6073
lclavicle 1.35174e-014 6.99722e-014
lhumerus -25.4213 -7.14517 84.0181
lradius 22.5971
lwrist -0.182598
lhand -22.4636 -11.9945
lfingers 7.12502
lthumb 3.96111 17.9484
rfemur -50.3366 17.6974 5.4893
rtibia 27.1728
rfoot -16.763 -6.80519
rtoes -39.8848
lfemur -46.5261 -12.5352 -12.8672
ltibia 31.1908
lfoot -13.8141 9.44038
ltoes -37.4698
